<?xml version="1.0" encoding="utf-8"?>
<!-- Generator: Adobe Illustrator 27.5.0, SVG Export Plug-In . SVG Version: 6.00 Build 0)  -->
<svg version="1.1" xmlns="http://www.w3.org/2000/svg" xmlns:xlink="http://www.w3.org/1999/xlink" x="0px" y="0px"
	 viewBox="0 0 2200 2200" style="enable-background:new 0 0 2200 2200;" xml:space="preserve">
<g id="background">
	<rect style="fill:#FFFFFF;" width="2200" height="2200"/>
</g>
<g id="Objects">
	<g>
		<g>
			<g>
				<path style="fill:#213947;" d="M974.369,679.215c-46.932,14.272-104.154,1.263-138.759-33.581
					c-34.61-34.844-53.044-83.801-56.029-132.816c-2.99-49.021,8.586-98.116,27.538-143.422
					c15.226-36.384,33.784-71.719,59.989-101.186c29.824-33.533,84.483-47.987,131.974,6.678
					c43.675,49.991,65.292,124.668,69.886,186.357C1074.169,531.06,1072.853,649.263,974.369,679.215z"/>
			</g>
			<g>
				<path style="fill:#213947;" d="M755.09,884.181c-33.295,22.698-81.345,26.531-117.025,7.701
					c-35.68-18.83-62.139-52.692-76.498-90.388c-14.366-37.702-17.332-79.032-13.585-119.197c3.016-32.266,8.9-64.517,22.223-94.043
					c15.153-33.607,54.467-58.342,105.101-27.134c46.503,28.483,81.764,81.729,100.495,128.97
					C797.001,743.549,824.958,836.542,755.09,884.181z"/>
			</g>
			<g>
				<path style="fill:#213947;" d="M1225.631,679.215c46.932,14.272,104.154,1.263,138.759-33.581
					c34.61-34.844,53.044-83.801,56.029-132.816c2.99-49.021-8.586-98.116-27.537-143.422
					c-15.226-36.384-33.784-71.719-59.989-101.186c-29.824-33.533-84.483-47.987-131.974,6.678
					c-43.675,49.991-65.292,124.668-69.886,186.357C1125.831,531.06,1127.147,649.263,1225.631,679.215z"/>
			</g>
			<g>
				<path style="fill:#213947;" d="M1444.91,884.181c33.295,22.698,81.345,26.531,117.025,7.701
					c35.679-18.83,62.139-52.692,76.498-90.388c14.365-37.702,17.332-79.032,13.585-119.197c-3.016-32.266-8.9-64.517-22.223-94.043
					c-15.153-33.607-54.467-58.342-105.101-27.134c-46.503,28.483-81.764,81.729-100.495,128.97
					C1402.999,743.549,1375.042,836.542,1444.91,884.181z"/>
			</g>
			<g>
				<path style="fill:#213947;" d="M1439.033,1208.36c-17.885,34.466-57.748,68.972-114.852,68.972
					c-34.252,0-67.594-6.636-97.644-16.037c-82.337-25.758-170.735-25.758-253.073,0c-30.05,9.401-63.392,16.037-97.644,16.037
					c-57.104,0-96.967-34.506-114.852-68.972c-17.88-34.471-19.748-76.847-4.965-112.752
					c28.136-68.327,105.305-101.202,153.014-157.626c31.404-37.139,49.254-83.654,75.608-124.535c0.247-0.383,0.498-0.77,0.75-1.153
					c24.944-38.252,53.74-66.187,114.626-66.187c60.885,0,89.681,27.935,114.625,66.187c0.252,0.383,0.504,0.77,0.75,1.153
					c26.354,40.88,44.204,87.395,75.608,124.535c47.708,56.424,124.877,89.299,153.014,157.626
					C1458.781,1131.514,1456.913,1173.89,1439.033,1208.36z"/>
			</g>
		</g>
		<path style="fill:#213947;" d="M1623.026,1682.991c32.165-24.757,52.897-63.636,52.897-107.363
			c0-74.786-60.626-135.411-135.411-135.411c-74.785,0-135.411,60.625-135.411,135.411c0,16.843,3.084,32.964,8.704,47.84H807.662
			c2.182-10.236,3.34-20.85,3.34-31.737c0-83.679-67.835-151.514-151.514-151.514s-151.514,67.835-151.514,151.514
			c0,53.242,27.467,100.063,69,127.085c-32.165,24.757-52.897,63.636-52.897,107.363c0,74.785,60.625,135.411,135.411,135.411
			s135.411-60.626,135.411-135.411c0-11.181-1.365-22.041-3.92-32.434h598.897c-0.575,5.366-0.878,10.813-0.878,16.331
			c0,83.679,67.835,151.514,151.514,151.514c83.679,0,151.514-67.835,151.514-151.514
			C1692.026,1756.834,1664.558,1710.013,1623.026,1682.991z"/>
	</g>
</g>
</svg>
